<mxfile host="app.diagrams.net" modified="2023-07-19T08:22:09.343Z" agent="Mozilla/5.0 (Macintosh; Intel Mac OS X 10_15_7) AppleWebKit/537.36 (KHTML, like Gecko) Chrome/114.0.0.0 Safari/537.36" etag="PiKTfwmsQWDltFUZ357M" version="21.6.3" type="device">
  <diagram id="R2lEEEUBdFMjLlhIrx00" name="Page-1">
    <mxGraphModel dx="2402" dy="2376" grid="1" gridSize="10" guides="1" tooltips="1" connect="1" arrows="1" fold="1" page="1" pageScale="1" pageWidth="850" pageHeight="1100" math="0" shadow="0" extFonts="Permanent Marker^https://fonts.googleapis.com/css?family=Permanent+Marker">
      <root>
        <mxCell id="0" />
        <mxCell id="1" parent="0" />
        <mxCell id="qd6vQCm5rS4ZLR1rwH4N-1" value="&lt;font style=&quot;&quot;&gt;&lt;span style=&quot;font-size: 20px;&quot;&gt;USER&lt;/span&gt;&lt;br&gt;&lt;div style=&quot;font-size: 18px;&quot;&gt;&lt;ol&gt;&lt;li style=&quot;text-align: left;&quot;&gt;&lt;span style=&quot;background-color: initial;&quot;&gt;Регистрация&lt;/span&gt;&lt;/li&gt;&lt;li style=&quot;text-align: left;&quot;&gt;&lt;span style=&quot;background-color: initial;&quot;&gt;Авторизация (JWT)&lt;/span&gt;&lt;/li&gt;&lt;li style=&quot;text-align: left;&quot;&gt;&lt;span style=&quot;background-color: initial;&quot;&gt;Получение детальной информации&lt;/span&gt;&lt;/li&gt;&lt;li style=&quot;text-align: left;&quot;&gt;&lt;span style=&quot;background-color: initial;&quot;&gt;Смена пароля&lt;/span&gt;&lt;/li&gt;&lt;li style=&quot;text-align: left;&quot;&gt;&lt;span style=&quot;background-color: initial;&quot;&gt;Подписка на обновления других пользователей&lt;/span&gt;&lt;/li&gt;&lt;/ol&gt;&lt;/div&gt;&lt;/font&gt;" style="rounded=1;whiteSpace=wrap;html=1;" vertex="1" parent="1">
          <mxGeometry x="240" y="-1060" width="280" height="250" as="geometry" />
        </mxCell>
        <mxCell id="qd6vQCm5rS4ZLR1rwH4N-2" value="&lt;br&gt;&lt;br&gt;HTTP" style="shape=actor;whiteSpace=wrap;html=1;" vertex="1" parent="1">
          <mxGeometry x="30" y="-560" width="40" height="60" as="geometry" />
        </mxCell>
        <mxCell id="qd6vQCm5rS4ZLR1rwH4N-3" value="&lt;font style=&quot;font-size: 18px;&quot;&gt;&lt;span style=&quot;font-size: 20px;&quot;&gt;BLOG&lt;/span&gt;&lt;br&gt;&lt;ol&gt;&lt;li style=&quot;text-align: left;&quot;&gt;&lt;font style=&quot;font-size: 18px;&quot;&gt;&lt;font style=&quot;font-size: 18px;&quot;&gt;Создание&lt;/font&gt;&lt;/font&gt;&lt;/li&gt;&lt;li style=&quot;text-align: left;&quot;&gt;&lt;font style=&quot;font-size: 18px;&quot;&gt;Просмотр детальной информации&lt;/font&gt;&lt;/li&gt;&lt;li style=&quot;text-align: left;&quot;&gt;&lt;font style=&quot;font-size: 18px;&quot;&gt;Редактирование&lt;/font&gt;&lt;/li&gt;&lt;li style=&quot;text-align: left;&quot;&gt;&lt;font style=&quot;font-size: 18px;&quot;&gt;Удаление&lt;/font&gt;&lt;/li&gt;&lt;li style=&quot;text-align: left;&quot;&gt;&lt;font style=&quot;font-size: 18px;&quot;&gt;Загрузка изображений&lt;/font&gt;&lt;/li&gt;&lt;li style=&quot;text-align: left;&quot;&gt;&lt;font style=&quot;font-size: 18px;&quot;&gt;Комментирование&lt;/font&gt;&lt;/li&gt;&lt;li style=&quot;text-align: left;&quot;&gt;Реакции&lt;/li&gt;&lt;li style=&quot;text-align: left;&quot;&gt;Пагинация&lt;/li&gt;&lt;li style=&quot;text-align: left;&quot;&gt;Получение списка&lt;/li&gt;&lt;li style=&quot;text-align: left;&quot;&gt;Сортировка&lt;/li&gt;&lt;li style=&quot;text-align: left;&quot;&gt;Репост&lt;/li&gt;&lt;li style=&quot;text-align: left;&quot;&gt;Лента пользователя&lt;/li&gt;&lt;li style=&quot;text-align: left;&quot;&gt;Категризация&lt;/li&gt;&lt;li style=&quot;text-align: left;&quot;&gt;Поиск по названию&lt;/li&gt;&lt;/ol&gt;&lt;/font&gt;" style="rounded=1;whiteSpace=wrap;html=1;" vertex="1" parent="1">
          <mxGeometry x="240" y="-750" width="280" height="420" as="geometry" />
        </mxCell>
        <mxCell id="qd6vQCm5rS4ZLR1rwH4N-7" style="edgeStyle=orthogonalEdgeStyle;rounded=0;orthogonalLoop=1;jettySize=auto;html=1;exitX=1;exitY=0.5;exitDx=0;exitDy=0;entryX=1;entryY=0.75;entryDx=0;entryDy=0;" edge="1" parent="1" source="qd6vQCm5rS4ZLR1rwH4N-4" target="qd6vQCm5rS4ZLR1rwH4N-3">
          <mxGeometry relative="1" as="geometry">
            <Array as="points">
              <mxPoint x="560" y="-150" />
              <mxPoint x="560" y="-405" />
            </Array>
          </mxGeometry>
        </mxCell>
        <mxCell id="qd6vQCm5rS4ZLR1rwH4N-4" value="&lt;font style=&quot;font-size: 20px;&quot;&gt;EMAIL рассылка&lt;br&gt;&lt;ol&gt;&lt;li style=&quot;text-align: left;&quot;&gt;&lt;font style=&quot;font-size: 20px;&quot;&gt;О новых публикациях&lt;/font&gt;&lt;/li&gt;&lt;/ol&gt;&lt;/font&gt;" style="rounded=1;whiteSpace=wrap;html=1;" vertex="1" parent="1">
          <mxGeometry x="240" y="-240" width="270" height="180" as="geometry" />
        </mxCell>
        <mxCell id="qd6vQCm5rS4ZLR1rwH4N-8" value="" style="edgeStyle=elbowEdgeStyle;elbow=horizontal;endArrow=classic;html=1;curved=0;rounded=0;endSize=8;startSize=8;entryX=0;entryY=0.5;entryDx=0;entryDy=0;exitX=0.9;exitY=0.5;exitDx=0;exitDy=0;exitPerimeter=0;" edge="1" parent="1" source="qd6vQCm5rS4ZLR1rwH4N-2" target="qd6vQCm5rS4ZLR1rwH4N-1">
          <mxGeometry width="50" height="50" relative="1" as="geometry">
            <mxPoint x="60" y="-500" as="sourcePoint" />
            <mxPoint x="210" y="-780" as="targetPoint" />
            <Array as="points">
              <mxPoint x="160" y="-710" />
            </Array>
          </mxGeometry>
        </mxCell>
        <mxCell id="qd6vQCm5rS4ZLR1rwH4N-9" value="" style="edgeStyle=segmentEdgeStyle;endArrow=classic;html=1;curved=0;rounded=0;endSize=8;startSize=8;exitX=0.9;exitY=0.5;exitDx=0;exitDy=0;exitPerimeter=0;" edge="1" parent="1" source="qd6vQCm5rS4ZLR1rwH4N-2">
          <mxGeometry width="50" height="50" relative="1" as="geometry">
            <mxPoint x="60" y="-500" as="sourcePoint" />
            <mxPoint x="240" y="-530" as="targetPoint" />
            <Array as="points">
              <mxPoint x="240" y="-530" />
            </Array>
          </mxGeometry>
        </mxCell>
        <mxCell id="qd6vQCm5rS4ZLR1rwH4N-11" value="" style="edgeStyle=elbowEdgeStyle;elbow=vertical;endArrow=classic;html=1;curved=0;rounded=0;endSize=8;startSize=8;exitX=1;exitY=0.5;exitDx=0;exitDy=0;entryX=1;entryY=0.5;entryDx=0;entryDy=0;" edge="1" parent="1" source="qd6vQCm5rS4ZLR1rwH4N-1" target="qd6vQCm5rS4ZLR1rwH4N-4">
          <mxGeometry width="50" height="50" relative="1" as="geometry">
            <mxPoint x="630" y="-480" as="sourcePoint" />
            <mxPoint x="680" y="-530" as="targetPoint" />
            <Array as="points">
              <mxPoint x="600" y="-510" />
            </Array>
          </mxGeometry>
        </mxCell>
        <mxCell id="qd6vQCm5rS4ZLR1rwH4N-12" value="MONGODB" style="shape=cylinder3;whiteSpace=wrap;html=1;boundedLbl=1;backgroundOutline=1;size=15;" vertex="1" parent="1">
          <mxGeometry x="700" y="-1050" width="90" height="100" as="geometry" />
        </mxCell>
        <mxCell id="qd6vQCm5rS4ZLR1rwH4N-15" value="" style="endArrow=classic;startArrow=classic;html=1;rounded=0;exitX=0.994;exitY=0.236;exitDx=0;exitDy=0;entryX=0;entryY=0.5;entryDx=0;entryDy=0;entryPerimeter=0;exitPerimeter=0;" edge="1" parent="1" source="qd6vQCm5rS4ZLR1rwH4N-1" target="qd6vQCm5rS4ZLR1rwH4N-12">
          <mxGeometry width="50" height="50" relative="1" as="geometry">
            <mxPoint x="630" y="-500" as="sourcePoint" />
            <mxPoint x="930" y="-947" as="targetPoint" />
          </mxGeometry>
        </mxCell>
        <mxCell id="qd6vQCm5rS4ZLR1rwH4N-16" value="PostgreSQL" style="shape=cylinder3;whiteSpace=wrap;html=1;boundedLbl=1;backgroundOutline=1;size=15;" vertex="1" parent="1">
          <mxGeometry x="695" y="-595" width="100" height="130" as="geometry" />
        </mxCell>
        <mxCell id="qd6vQCm5rS4ZLR1rwH4N-17" value="" style="endArrow=classic;startArrow=classic;html=1;rounded=0;exitX=1;exitY=0.5;exitDx=0;exitDy=0;entryX=-0.017;entryY=0.432;entryDx=0;entryDy=0;entryPerimeter=0;" edge="1" parent="1" source="qd6vQCm5rS4ZLR1rwH4N-3" target="qd6vQCm5rS4ZLR1rwH4N-16">
          <mxGeometry width="50" height="50" relative="1" as="geometry">
            <mxPoint x="800" y="-430" as="sourcePoint" />
            <mxPoint x="850" y="-480" as="targetPoint" />
          </mxGeometry>
        </mxCell>
      </root>
    </mxGraphModel>
  </diagram>
</mxfile>
